<?xml version="1.0" encoding="UTF-8"?>
<svg width="64px" height="64px" viewBox="0 0 64 64" version="1.1" xmlns="http://www.w3.org/2000/svg" xmlns:xlink="http://www.w3.org/1999/xlink">
    <title>Bite</title>
    <g id="Bite" stroke="none" stroke-width="1" fill="none" fill-rule="evenodd">
        <g id="Group-2" transform="translate(18.000000, 18.000000) scale(1, -1) translate(-18.000000, -18.000000) translate(4.000000, 4.000000)" fill="#FFFFFF">
            <path d="M27.5761849,0 C28.6365145,5.53242168 27.7072403,8.29863252 24.7883624,8.29863252 C21.8520707,8.29863252 20.965306,7.40170994 18.6281429,6.81089617 L16.499486,12.5747218 L14.5454481,6.31457203 C14.2822926,6.30790244 14.007686,6.30442226 13.7207824,6.30442226 C13.2511506,6.30442226 12.8076652,6.31374717 12.3878894,6.3311217 L10.1313794,12.4459665 L8.37974274,6.83370962 C5.75864321,7.42450276 4.45968062,8.29863252 2.27121792,8.29863252 C0.0675537481,8.29863252 -0.532520647,5.53242168 0.470994734,0 L0.470994734,0 Z" id="Combined-Shape"></path>
            <path d="M27.5761849,13 C28.6365145,18.753069 27.7072403,21.6296035 24.7883624,21.6296035 C23.7859896,21.6296035 23.0224605,21.520911 22.3585399,21.3532942 L19.9971474,28 L17.5510278,19.8465336 C16.5638737,19.6707879 15.3375882,19.5558589 13.7207824,19.5558589 C12.2018576,19.5558589 10.9564403,19.6572936 9.90208785,19.8152955 L6.99714739,28 L4.94635782,21.1683248 C4.0992526,21.4365862 3.2796744,21.6296035 2.27121792,21.6296035 C0.0675537481,21.6296035 -0.532520647,18.753069 0.470994734,13 L0.470994734,13 Z" id="Combined-Shape" transform="translate(14.000000, 20.500000) scale(1, -1) translate(-14.000000, -20.500000) "></path>
        </g>
    </g>
</svg>