<?xml version="1.0" encoding="UTF-8"?>
<svg width="64px" height="64px" viewBox="0 0 64 64" version="1.1"
    xmlns="http://www.w3.org/2000/svg"
    xmlns:xlink="http://www.w3.org/1999/xlink">
    <title>Bow</title>
    <g id="Bow" stroke="none" stroke-width="1" fill="none" fill-rule="evenodd">
        <g id="bow" transform="translate(8.000000, 8.000000)" fill="currentColor" fill-rule="nonzero">
            <path d="M23.45,5.9 L20.475,7.4 C22.4083333,10.3666667 23.25,14.4416667 23,19.625 C22.9666667,20.3083333 22.7,20.8833333 22.2,21.35 C21.6833333,21.8166667 21.075,22.0333333 20.375,22 C19.6916667,21.9666667 19.1166667,21.7 18.65,21.2 C18.4,20.9166667 18.225,20.6166667 18.125,20.3 L10,17.575 L10,19 C10,19.2833333 9.90833333,19.525 9.725,19.725 L5.725,23.725 C5.525,23.9083333 5.28333333,24 5,24 C4.71666667,24 4.48333333,23.9083333 4.3,23.725 C4.1,23.525 4,23.2833333 4,23 L4,20 L1,20 C0.716666667,20 0.483333333,19.9083333 0.3,19.725 C0.1,19.525 0,19.2833333 0,19 C0,18.7166667 0.1,18.4833333 0.3,18.3 L4.3,14.3 C4.48333333,14.1 4.71666667,14 5,14 L6.425,14 L3.725,5.9 C3.40833333,5.78333333 3.11666667,5.60833333 2.85,5.375 C2.33333333,4.925 2.05,4.35833333 2,3.675 C1.95,2.975 2.15833333,2.36666667 2.625,1.85 C3.075,1.33333333 3.65,1.05 4.35,1 C9.53333333,0.683333333 13.625,1.51666667 16.625,3.5 L18.1,0.55 C18.1833333,0.383333333 18.3083333,0.25 18.475,0.15 L19,0 L23,0 C23.2833333,0 23.525,0.1 23.725,0.3 C23.9083333,0.483333333 24,0.716666667 24,1 L24,5 L23.85,5.525 L23.45,5.9 M12.25,15.175 L18.025,17.1 C17.9083333,14.6 17.425,12.5166667 16.575,10.85 L12.25,15.175 M8.825,11.75 L13.2,7.4 C11.5166667,6.5 9.41666667,6.01666667 6.9,5.95 L8.825,11.75" id="Shape"></path>
        </g>
    </g>
</svg>