<?xml version="1.0" encoding="UTF-8"?>
<svg width="64px" height="64px" viewBox="0 0 64 64" version="1.1"
    xmlns="http://www.w3.org/2000/svg"
    xmlns:xlink="http://www.w3.org/1999/xlink">
    <title>Fire</title>
    <g id="Fire" stroke="none" stroke-width="1" fill="none" fill-rule="evenodd">
        <g id="fire" transform="translate(11.000000, 5.000000)" fill="currentColor" fill-rule="nonzero">
            <path d="M18.1534109,8.73091571 C20.3530479,11.8085034 21.2778953,14.8942761 20.9279531,17.988234 L20.9279531,18.1110101 C20.4946912,20.6811232 19.528184,22.8256125 18.0284315,24.5444779 C17.3118831,25.7231285 16.1954006,26.5252657 14.6789842,26.9508896 L14.70398,26.8772239 C15.1039141,25.9277554 15.0955821,24.6099585 14.6789842,22.9238333 L14.6539883,22.8992781 C13.2708832,19.1177741 11.9461018,16.7277326 10.6796441,15.7291536 C10.4463492,15.5327119 10.2047224,15.4590462 9.95476368,15.5081567 C9.63814925,15.5245268 9.39652246,15.6636731 9.22988329,15.9255954 C9.07990803,16.105667 9.01325237,16.3348491 9.02991628,16.6131416 L9.02991628,16.6376968 C9.06324412,18.1928608 8.6049864,19.6252487 7.65514312,20.9348605 C6.47200501,22.1135111 5.95542358,23.4231228 6.10539884,24.8636958 L6.13039471,24.9128062 C6.26370605,25.7476837 6.53866068,26.443415 6.95525861,27 C3.02257418,26.0177912 0.722953627,23.5377139 0.0563969443,19.5597681 C-0.26021748,16.6949923 0.756281461,14.0839538 3.10589377,11.7266526 C5.48883391,8.58358438 6.62198027,5.13766839 6.50533285,1.38890468 C6.47200501,1.01239129 6.56365656,0.701358495 6.78028748,0.455806287 C6.96359057,0.177513784 7.21354932,0.0301824589 7.53016375,0.0138123117 C7.81345034,-0.0352981299 8.08007301,0.0465526062 8.33003177,0.25936452 C11.9627657,3.27147161 14.3707017,6.89745922 15.5538398,11.1373273 C15.8371264,10.5643722 16.0204295,9.95049167 16.1037491,9.29568578 C16.1370769,8.93554255 16.2953841,8.64906497 16.5786707,8.43625306 C16.8119656,8.23981129 17.0952521,8.1743307 17.4285305,8.23981129 C17.7118171,8.28892173 17.9534439,8.4526232 18.1534109,8.73091571" id="Path"></path>
        </g>
    </g>
</svg>