<?xml version="1.0" encoding="UTF-8"?>
<svg width="64px" height="64px" viewBox="0 0 64 64" version="1.1"
    xmlns="http://www.w3.org/2000/svg"
    xmlns:xlink="http://www.w3.org/1999/xlink">
    <title>Shield</title>
    <g id="Shield" stroke="none" stroke-width="1" fill="none" fill-rule="evenodd">
        <g id="tag_shield" transform="translate(8.000000, 6.000000)" fill="currentColor" fill-rule="nonzero">
            <path d="M21.95,4 C22.55,4.06666667 23.05,4.35 23.45,4.85 C23.8833333,5.31666667 24.0666667,5.86666667 24,6.5 C23.8,12.1666667 22.2166667,16.8833333 19.25,20.65 C17.45,22.9166667 15.3833333,24.6166667 13.05,25.75 L12.05,26 L11.05,25.75 C8.68333333,24.6166667 6.6,22.9166667 4.8,20.65 C1.83333333,16.8833333 0.233333333,12.1666667 -1.77635684e-15,6.5 C-1.77635684e-15,5.86666667 0.2,5.31666667 0.6,4.85 C1,4.35 1.5,4.06666667 2.1,4 C4.73333333,3.76666667 7.38333333,2.63333333 10.05,0.6 C10.65,0.2 11.3166667,0 12.05,0 C12.75,0 13.4,0.2 14,0.6 C16.6666667,2.6 19.3166667,3.73333333 21.95,4" id="Path"></path>
        </g>
    </g>
</svg>