<?xml version="1.0" encoding="UTF-8"?>
<svg width="64px" height="64px" viewBox="0 0 64 64" version="1.1"
    xmlns="http://www.w3.org/2000/svg"
    xmlns:xlink="http://www.w3.org/1999/xlink">
    <title>Damage</title>
    <g id="Damage" stroke="none" stroke-width="1" fill="none" fill-rule="evenodd">
        <path d="M25.5,6.26481481 C25.7407407,6.0882716 26.0216049,6 26.3425926,6 L30.7481481,6 C31.0530864,6 31.3179012,6.0882716 31.5425926,6.26481481 L31.6388889,6.33703704 C31.8796296,6.59382716 32,6.89074074 32,7.22777778 L32,11.6814815 C32,11.9864198 31.8796296,12.2753086 31.6388889,12.5481481 L20.0592593,24.1277778 L20.9259259,24.9944444 L21.0703704,24.8259259 C21.1185185,24.745679 21.1987654,24.6975309 21.3111111,24.6814815 L21.6,24.6092593 L21.9611111,24.6092593 C22.2820988,24.6092593 22.5709877,24.7296296 22.8277778,24.9703704 L22.9,25.0425926 C23.0925926,25.2833333 23.1888889,25.5481481 23.1888889,25.837037 L23.1888889,28.7981481 C23.1888889,29.1030864 23.0925926,29.3679012 22.9,29.5925926 L22.7555556,29.737037 C22.5148148,29.9296296 22.25,30.0259259 21.9611111,30.0259259 L19,30.0259259 C18.1333333,30.0259259 17.7160494,29.6166667 17.7481481,28.7981481 L17.7481481,28.5092593 C17.7481481,28.2845679 17.8283951,28.1 17.9888889,27.9555556 L18.2055556,27.7148148 L18.037037,27.5703704 L16.3277778,25.9092593 L14.3777778,27.8592593 L14.3777778,30.7481481 C14.3777778,31.0851852 14.2493827,31.3740741 13.9925926,31.6148148 C13.7518519,31.8716049 13.462963,32 13.1259259,32 L7.27592593,32 C6.42530864,32 6,31.582716 6,30.7481481 L6,24.85 C6,24.0154321 6.42530864,23.5981481 7.27592593,23.5981481 L10.1166667,23.5981481 L12.0666667,21.6481481 L10.2611111,19.7944444 L10.0203704,20.0592593 C9.87592593,20.1716049 9.69135802,20.2277778 9.46666667,20.2277778 L9.22592593,20.2277778 C8.35925926,20.2277778 7.93395062,19.8185185 7.95,19 L7.95,16.0388889 C7.95,15.204321 8.37530864,14.787037 9.22592593,14.787037 L12.187037,14.787037 C12.4919753,14.787037 12.7808642,14.9154321 13.0537037,15.1722222 L13.1259259,15.2444444 C13.2864198,15.4851852 13.3666667,15.75 13.3666667,16.0388889 L13.3666667,16.3759259 C13.3666667,16.5685185 13.2944444,16.7450617 13.15,16.9055556 L12.9814815,17.0981481 L13.8481481,17.9648148 L25.4277778,6.33703704 L25.5,6.26481481" id="Path" fill="currentColor" fill-rule="nonzero"></path>
    </g>
</svg>