<?xml version="1.0" encoding="UTF-8"?>
<svg width="70px" height="70px" viewBox="0 0 70 70" version="1.1" xmlns="http://www.w3.org/2000/svg" xmlns:xlink="http://www.w3.org/1999/xlink">
    <title>HandSlot</title>
    <g id="Page-1" stroke="none" stroke-width="1" fill="none" fill-rule="evenodd">
        <g id="Exports" transform="translate(-381.000000, -731.000000)" fill-rule="nonzero">
            <g id="HandSlot" transform="translate(381.000000, 731.000000)">
                <path d="M66.9219512,7.76097561 L67,9.24390244 L67,60.7560976 L66.9219512,62.3170732 C66.4536585,65.4390244 64.398374,67 60.7560976,67 L9.24390244,67 C5.60162602,67 3.57235772,65.4390244 3.15609756,62.3170732 L3,60.7560976 L3,9.24390244 L3.15609756,7.76097561 C3.57235772,4.58699187 5.60162602,3 9.24390244,3 L60.7560976,3 C64.398374,3 66.4536585,4.58699187 66.9219512,7.76097561 M60.8648649,6 L9.13513514,6 C7.41081081,6 6.41801802,6.67927928 6.15675676,8.03783784 L6.07837838,8.35135135 L6,9.13513514 L6,46.6 L10.3108108,50.9108108 L6,55.2216216 L6,60.8648649 C6,62.9027027 6.99279279,63.9477477 8.97837838,64 L61.1,64 C63.0333333,63.9477477 64,62.9027027 64,60.8648649 L64,24.9675676 L60.2378378,21.2054054 L64,17.4432432 L64,9.13513514 L63.9216216,8.03783784 L64,8.11621622 C63.6342342,6.70540541 62.5891892,6 60.8648649,6" id="Shape" fill="#CBCBCB"></path>
                <path d="M66.9219512,7.76097561 C66.4536585,4.58699187 64.398374,3 60.7560976,3 L9.24390244,3 C5.60162602,3 3.57235772,4.58699187 3.15609756,7.76097561 L3,9.24390244 L3,60.7560976 L3.15609756,62.3170732 C3.57235772,65.4390244 5.60162602,67 9.24390244,67 L60.7560976,67 C64.398374,67 66.4536585,65.4390244 66.9219512,62.3170732 L67,60.7560976 L67,9.24390244 L66.9219512,7.76097561 M70,9.33333333 L70,60.6666667 L70,61.0555556 C69.8444444,67.0185185 66.7333333,70 60.6666667,70 L9.33333333,70 L8.94444444,70 L8.71111111,70 L8.4,70 L8.24444444,70 L8.08888889,70 L7.93333333,70 C3.05925926,69.5851852 0.440740741,66.9148148 0.0777777778,61.9888889 L0,61.0555556 L0,60.6666667 L0,9.33333333 C0,3.11111111 3.11111111,0 9.33333333,0 L60.6666667,0 C66.8888889,0 70,3.11111111 70,9.33333333" id="Shape" fill="#E9E9E9"></path>
                <path d="M60.6666667,6.22222222 C62.3777778,6.22222222 63.4148148,6.92222222 63.7777778,8.32222222 L63.7,8.24444444 L63.7777778,9.33333333 L63.7777778,17.5777778 L60.0444444,21.3111111 L63.7777778,25.0444444 L63.7777778,60.6666667 C63.7777778,62.6888889 62.8185185,63.7259259 60.9,63.7777778 L9.17777778,63.7777778 C7.20740741,63.7259259 6.22222222,62.6888889 6.22222222,60.6666667 L6.22222222,55.0666667 L10.5,50.7888889 L6.22222222,46.5111111 L6.22222222,9.33333333 L6.3,8.55555556 L6.37777778,8.24444444 C6.63703704,6.8962963 7.62222222,6.22222222 9.33333333,6.22222222 L60.6666667,6.22222222" id="Path" fill="#E5E5E5"></path>
            </g>
        </g>
    </g>
</svg>