<?xml version="1.0" encoding="UTF-8"?>
<svg width="64px" height="64px" viewBox="0 0 64 64" version="1.1"
    xmlns="http://www.w3.org/2000/svg"
    xmlns:xlink="http://www.w3.org/1999/xlink">
    <title>Heal</title>
    <g id="Heal" stroke="none" stroke-width="1" fill="none" fill-rule="evenodd">
        <g id="suit_hearts" transform="translate(7.000000, 12.000000)" fill="currentColor" fill-rule="nonzero">
            <path d="M23.025,2 C24.3416667,3.31666667 25,4.91666667 25,6.8 C25,8.65 24.3416667,10.2416667 23.025,11.575 L23,11.6 L22.975,11.625 L22,12.425 L13.3,19.725 C13.0666667,19.9083333 12.8,20 12.5,20 C12.2166667,20 11.9666667,19.9083333 11.75,19.725 L3.05,12.425 C2.7,12.1916667 2.38333333,11.925 2.1,11.625 L2.05,11.575 C0.683333333,10.2416667 0,8.65 0,6.8 C0,4.91666667 0.683333333,3.31666667 2.05,2 C3.36666667,0.666666667 4.96666667,0 6.85,0 C8.75,0 10.375,0.666666667 11.725,2 L12.525,2.925 L13.35,2 C14.6666667,0.666666667 16.2666667,0 18.15,0 C20.05,0 21.675,0.666666667 23.025,2" id="Path"></path>
        </g>
    </g>
</svg>