<?xml version="1.0" encoding="UTF-8"?>
<svg width="322px" height="225px" viewBox="0 0 322 225" version="1.1" xmlns="http://www.w3.org/2000/svg" xmlns:xlink="http://www.w3.org/1999/xlink">
    <title>Path</title>
    <defs>
        <filter x="-3.7%" y="-5.5%" width="107.5%" height="111.0%" filterUnits="objectBoundingBox" id="filter-1">
            <feOffset dx="0" dy="6" in="SourceAlpha" result="shadowOffsetOuter1"></feOffset>
            <feColorMatrix values="0 0 0 0 0   0 0 0 0 0   0 0 0 0 0  0 0 0 0.285292832 0" type="matrix" in="shadowOffsetOuter1" result="shadowMatrixOuter1"></feColorMatrix>
            <feMerge>
                <feMergeNode in="shadowMatrixOuter1"></feMergeNode>
                <feMergeNode in="SourceGraphic"></feMergeNode>
            </feMerge>
        </filter>
    </defs>
    <g id="Page-1" stroke="none" stroke-width="1" fill="none" fill-rule="evenodd">
        <g id="Exports" transform="translate(-30.000000, -684.000000)" fill="#ECE3CE" fill-rule="nonzero">
            <g id="Summary" filter="url(#filter-1)" transform="translate(30.000000, 684.000000)">
                <path d="M0,161.155435 L6.125,157.108696 L2.625,154.728261 L0,152.942935 L0,7.02228261 C0.116666667,2.34076087 3.675,0 10.675,0 L156.1,0 L166.25,6.90326087 L176.225,0 L311.15,0 C318.266667,0 321.883333,2.34076087 322,7.02228261 L322,32.373913 L314.65,37.4918478 L311.15,39.8722826 L322,47.2516304 L322,178.532609 L311.15,186.030978 L307.65,188.411413 L322,198.171196 L322,211.739674 C322,216.579891 318.383333,219 311.15,219 L56.875,219 L49.175,213.763043 L41.475,219 L10.675,219 C3.55833333,219 0,216.579891 0,211.739674 L0,186.269022 L9.8,179.603804 L6.3,177.22337 L0,172.938587 L0,161.155435" id="Path"></path>
            </g>
        </g>
    </g>
</svg>