<?xml version="1.0" encoding="UTF-8"?>
<svg width="64px" height="64px" viewBox="0 0 64 64" version="1.1"
    xmlns="http://www.w3.org/2000/svg"
    xmlns:xlink="http://www.w3.org/1999/xlink">
    <title>Money</title>
    <g id="Money" stroke="none" stroke-width="1" fill="none" fill-rule="evenodd">
        <g id="pouch" transform="translate(9.000000, 6.000000)" fill="currentColor" fill-rule="nonzero">
            <path d="M14.405366,0 C14.8725715,0.269517331 15.0644595,0.892776158 14.9810299,1.86977648 L14.9810299,1.89504373 C14.6306258,4.16909621 13.8297021,5.49141561 12.5782589,5.86200194 C11.7272775,6.23258827 10.71778,6.36734694 9.54976631,6.26627794 L9.44965085,6.26627794 C8.28163718,6.36734694 7.26379669,6.23258827 6.39612938,5.86200194 C5.16137207,5.49141561 4.36879136,4.16909621 4.01838726,1.89504373 L4.01838726,1.86977648 C3.93495771,0.892776158 4.12684567,0.269517331 4.59405114,0 L6.54630257,0.0505344995 L6.52127371,0.0505344995 C7.57248602,0.505344995 8.56529764,0.732750243 9.49970858,0.732750243 C10.4341195,0.732750243 11.4185882,0.505344995 12.4531146,0.0505344995 L14.405366,0 M9.49970858,26 C2.92546017,25.9157758 -0.23651971,23.7006803 0.0137689352,19.3547133 C0.614461683,14.2170392 2.02442105,10.6038225 4.24364704,8.51506317 C4.8777116,7.84126984 5.74537891,7.65597668 6.84664895,7.95918367 C7.74768807,8.29608034 8.60701242,8.46452867 9.42462199,8.46452867 C10.342347,8.46452867 11.2600721,8.29608034 12.1777971,7.95918367 C13.2790671,7.65597668 14.1467344,7.84126984 14.780799,8.51506317 C16.9833391,10.6038225 18.3849555,14.2170392 18.9856482,19.3547133 C19.2526228,23.7006803 16.0906429,25.9157758 9.49970858,26 M22.7650068,8.41399417 C22.9819236,8.76773567 23.0486672,9.15516683 22.9652377,9.57628766 C22.8651222,9.98056365 22.6398624,10.2921931 22.2894583,10.5111759 L21.8389388,10.7133139 L22.8651222,12.7346939 C23.0319813,13.1389699 23.0403243,13.5348235 22.8901511,13.9222546 C22.723292,14.3096858 22.4479745,14.5876255 22.0641986,14.7560739 L20.8878419,14.7813411 C20.504066,14.6128928 20.2287485,14.3433754 20.0618894,13.9727891 C18.9773053,11.4797538 17.3254002,9.34045999 15.1061742,7.55490768 C14.8391997,7.35276968 14.6639976,7.10009718 14.5805681,6.79689018 C14.4804526,6.49368319 14.4804526,6.19889861 14.5805681,5.91253644 C14.6639976,5.60932945 14.8391997,5.35665695 15.1061742,5.15451895 C15.339777,4.93553612 15.6067515,4.81762229 15.9070979,4.80077745 C18.843818,4.54810496 21.1297876,5.75251053 22.7650068,8.41399417" id="Shape"></path>
        </g>
    </g>
</svg>