<?xml version="1.0" encoding="UTF-8"?>
<svg width="641px" height="76px" viewBox="0 0 641 76" version="1.1" xmlns="http://www.w3.org/2000/svg" xmlns:xlink="http://www.w3.org/1999/xlink">
    <title>RollAreaPlayer</title>
    <g id="Page-1" stroke="none" stroke-width="1" fill="none" fill-rule="evenodd">
        <g id="Exports" transform="translate(-30.000000, -1033.000000)" fill-rule="nonzero">
            <g id="RollAreaPlayer" transform="translate(30.000000, 1033.000000)">
                <path d="M641,66.2888889 C640.831053,72.762963 637.452105,76 630.863158,76 L10.1368421,76 L9.71447368,76 L9.46105263,76 L9.12315789,76 L8.95421053,76 L8.78526316,76 L8.61631579,76 C3.32263158,75.5496296 0.478684211,72.6503704 0.0844736842,67.3022222 L0,66.2888889 L0,65.8666667 L0,10.1333333 C0,3.37777778 3.37894737,0 10.1368421,0 L630.863158,0 C637.621053,0 641,3.37777778 641,10.1333333 L641,66.2888889 Z" id="Shape" fill="#E9E9E9"></path>
                <path d="M634.048889,8.95111111 L634.133333,10.1333333 L634.133333,19.0844444 L630.08,23.1377778 L634.133333,27.1911111 L634.133333,65.8666667 C634.133333,68.0622222 633.091852,69.1881481 631.008889,69.2444444 L391.728889,69.2444444 L389.111111,66.6266667 L386.493333,69.2444444 L314.631111,69.2444444 L309.986667,64.6 L305.342222,69.2444444 L9.96444444,69.2444444 C7.82518519,69.1881481 6.75555556,68.0622222 6.75555556,65.8666667 L6.75555556,59.7866667 L11.4,55.1422222 L6.75555556,50.4977778 L6.75555556,10.1333333 L6.84,9.28888889 L6.92444444,8.95111111 C7.20592593,7.48740741 8.27555556,6.75555556 10.1333333,6.75555556 L38.9288889,6.75555556 L42.7288889,10.5555556 L46.5288889,6.75555556 L62.32,6.75555556 L67.0488889,11.4844444 L71.7777778,6.75555556 L630.755556,6.75555556 C632.613333,6.75555556 633.739259,7.51555556 634.133333,9.03555556 L634.048889,8.95111111 Z" id="Path" fill="#E5E5E5"></path>
                <path d="M630.626374,7 L71.9423077,7 L67.2192308,11.6918919 L62.4961538,7 L46.7244505,7 L42.9291209,10.7702703 L39.1337912,7 L10.3736264,7 C8.51813187,7 7.44981685,7.72612613 7.16868132,9.17837838 L7.08434066,9.51351351 L7,10.3513514 L7,50.4 L11.6387363,55.0081081 L7,59.6162162 L7,65.6486486 C7,67.827027 8.06831502,68.9441441 10.2049451,69 L305.391758,69 L310.030495,64.3918919 L314.669231,69 L386.443132,69 L389.057692,66.4027027 L391.672253,69 L630.879396,69 C632.959799,68.9441441 634,67.827027 634,65.6486486 L634,27.2756757 L629.951648,23.2540541 L634,19.2324324 L634,10.3513514 L633.915659,9.17837838 L634,9.26216216 C633.60641,7.75405405 632.481868,7 630.626374,7 Z M636.915591,9.13292683 L637,10.7317073 L637,66.2682927 L636.915591,67.9512195 C636.40914,71.3170732 634.18638,73 630.247312,73 L9.75268817,73 C5.81362007,73 3.61899642,71.3170732 3.1688172,67.9512195 L3,66.2682927 L3,10.7317073 L3.1688172,9.13292683 C3.61899642,5.71097561 5.81362007,4 9.75268817,4 L630.247312,4 C634.18638,4 636.40914,5.71097561 636.915591,9.13292683 Z" id="Shape" fill="#CBCBCB"></path>
            </g>
        </g>
    </g>
</svg>