<?xml version="1.0" encoding="UTF-8"?>
<svg width="64px" height="64px" viewBox="0 0 64 64" version="1.1"
    xmlns="http://www.w3.org/2000/svg"
    xmlns:xlink="http://www.w3.org/1999/xlink">
    <title>Skull</title>
    <g id="Skull" stroke="none" stroke-width="1" fill="none" fill-rule="evenodd">
        <g id="skull" transform="translate(8.000000, 5.000000)" fill="currentColor" fill-rule="nonzero">
            <path d="M16,18.9 C16.7555556,18.9 17.3777778,18.6525 17.8666667,18.1575 C18.4,17.6175 18.6666667,16.965 18.6666667,16.2 C18.6666667,15.48 18.4,14.85 17.8666667,14.31 C17.3777778,13.77 16.7555556,13.5 16,13.5 C15.2444444,13.5 14.6,13.77 14.0666667,14.31 C13.5777778,14.805 13.3333333,15.435 13.3333333,16.2 C13.3333333,16.965 13.5777778,17.6175 14.0666667,18.1575 C14.6,18.6525 15.2444444,18.9 16,18.9 M8,18.9 C8.75555556,18.9 9.37777778,18.6525 9.86666667,18.1575 C10.4,17.6175 10.6666667,16.965 10.6666667,16.2 C10.6666667,15.48 10.4,14.85 9.86666667,14.31 C9.37777778,13.77 8.75555556,13.5 8,13.5 C7.24444444,13.5 6.6,13.77 6.06666667,14.31 C5.57777778,14.805 5.33333333,15.435 5.33333333,16.2 C5.33333333,16.965 5.57777778,17.6175 6.06666667,18.1575 C6.6,18.6525 7.24444444,18.9 8,18.9 M12,0 C15.2888889,0 18.1111111,1.125 20.4666667,3.375 C22.8222222,5.625 24,8.325 24,11.475 C24,13.275 23.5555556,15.03 22.6666667,16.74 L22.6666667,18.9 C22.6666667,19.665 22.4,20.3175 21.8666667,20.8575 C21.3777778,21.3525 20.7555556,21.6 20,21.6 L17.3333333,21.6 L17.3333333,24.3 C17.3333333,25.065 17.0666667,25.7175 16.5333333,26.2575 C16.0444444,26.7525 15.4222222,27 14.6666667,27 L9.33333333,27 C8.57777778,27 7.93333333,26.7525 7.4,26.2575 C6.91111111,25.7175 6.66666667,25.065 6.66666667,24.3 L6.66666667,21.6 L4,21.6 C3.24444444,21.6 2.6,21.3525 2.06666667,20.8575 C1.57777778,20.3175 1.33333333,19.665 1.33333333,18.9 L1.33333333,16.74 C0.444444444,15.165 0,13.41 0,11.475 C0,8.325 1.17777778,5.625 3.53333333,3.375 C5.84444444,1.125 8.66666667,0 12,0" id="Shape"></path>
        </g>
    </g>
</svg>