<?xml version="1.0" encoding="UTF-8"?>
<svg width="64px" height="64px" viewBox="0 0 64 64" version="1.1"
    xmlns="http://www.w3.org/2000/svg"
    xmlns:xlink="http://www.w3.org/1999/xlink">
    <title>Unheal</title>
    <g id="Unheal" stroke="none" stroke-width="1" fill="none" fill-rule="evenodd">
        <g id="suit_hearts_broken" transform="translate(3.000000, 10.000000)" fill="currentColor" fill-rule="nonzero">
            <path d="M27.112369,2.70819247 C28.5106142,4.29405407 29.1320565,6.15275209 28.9766959,8.28428651 C28.8213353,10.3817164 27.9409588,12.1381007 26.3355662,13.5534396 C26.2837793,13.5875442 26.2492547,13.6131226 26.2319924,13.6301748 L25.0667881,14.3975272 L25.1444684,14.3719488 L17.4800135,19.7945724 L17.0657186,19.9480429 L16.6514238,19.8713076 L16.3407026,19.5899451 L14.6058429,16.9553685 C14.5195314,16.8018981 14.4850069,16.6399014 14.5022692,16.4693787 C14.5022692,16.2988559 14.5626872,16.1539116 14.6835232,16.0345457 L17.5318003,12.8116656 L17.7130543,12.3512542 C17.7303166,12.1807314 17.6871609,12.0357871 17.5835872,11.9164212 L15.2531786,8.28428651 C15.1668672,8.13081603 15.1323426,7.96881942 15.1496049,7.79829666 C15.1496049,7.62777391 15.2100229,7.48282957 15.3308589,7.36346364 L18.1791361,4.11500518 L18.3603901,3.65459375 L18.2309229,3.24533914 L17.3764398,1.86410483 C17.272866,1.74473891 17.2297103,1.61684684 17.2469726,1.48042864 L17.3505463,1.07117403 L17.6612675,0.764233073 C18.8868898,0.167403435 20.2247169,-0.0798545578 21.674749,0.0224590944 C23.849797,0.175929573 25.662337,1.07117403 27.112369,2.70819247 M25.5587633,13.5534396 C25.6968616,13.4340737 26.0162139,13.2720771 26.5168202,13.0674498 L26.4391399,13.3743907 L26.3614596,13.5022828 L26.5427136,13.0418713 C26.0075827,13.2635509 25.6795993,13.4340737 25.5587633,13.5534396 C25.4034027,13.6728055 25.4551896,13.7410146 25.7141239,13.7580669 C25.8867467,13.7751192 26.0421073,13.7324885 26.1802056,13.6301748 L25.7400173,13.7324885 C25.4983453,13.7154362 25.4379273,13.6557533 25.5587633,13.5534396 M13.4406386,21.6362181 L3.96364359,14.9090955 L2.85022615,14.1161647 L2.87611958,14.1161647 L2.82433272,14.0650079 L2.82433272,14.0905863 C1.1326287,12.6922997 0.200465256,10.9444415 0.0278423967,8.8470116 C-0.144780463,6.71547718 0.485292974,4.83972689 1.91806271,3.21976073 C3.29904558,1.59979457 5.0511676,0.704550109 7.17442877,0.534027355 C9.31495223,0.346452326 11.2138037,0.943281964 12.8709831,2.32451627 L13.6995729,3.06629025 L13.7513597,3.11744707 L13.8549334,3.27091755 L13.8808269,3.29649597 L13.9844006,3.42438803 L14.1397612,3.85922105 L14.010294,4.31963249 L11.7834591,7.97734555 C11.6798854,8.09671148 11.6367297,8.24165582 11.653992,8.41217858 L11.8093525,8.8470116 L14.6576297,12.0698916 L14.8647772,12.5047247 L14.73531,12.9907145 L12.4566883,16.6228492 L12.3531146,17.0576822 L12.5343686,17.5180936 L15.3308589,20.6898168 C15.4689572,20.826235 15.5380063,21.0052839 15.5380063,21.2269635 L15.3049655,21.7385318 C15.1668672,21.8920023 15.0028754,21.9772636 14.8129903,21.9943159 L14.73531,21.9943159 C14.251966,22.0284205 13.8204089,21.9090545 13.4406386,21.6362181" id="Shape"></path>
        </g>
    </g>
</svg>