<?xml version="1.0" encoding="UTF-8"?>
<svg width="29px" height="29px" viewBox="0 0 29 29" version="1.1"
    xmlns="http://www.w3.org/2000/svg"
    xmlns:xlink="http://www.w3.org/1999/xlink">
    <title>Hand</title>
    <g id="Page-1" stroke="none" stroke-width="1" fill="none" fill-rule="evenodd">
        <g id="Exports" transform="translate(-659.000000, -64.000000)" fill="currentColor" fill-rule="nonzero">
            <path d="M681.56685,64.274465 L682.342833,64.4352334 L682.317801,64.4084387 L682.59315,64.4888229 L682.568118,64.4888229 C683.419197,64.7389071 684.15346,65.230144 684.770909,65.9625335 L684.770909,65.9893282 L685.146385,66.4716335 L685.22148,66.6324019 L687.374207,70.0621282 C688.04172,71.0981914 688.175222,71.8931019 687.774715,72.4468598 L684.695814,78.0737547 C684.478872,78.7704178 683.736265,79.0740915 682.467992,78.9847757 L678.538013,78.7436231 C676.902607,78.6364441 675.62599,77.8683283 674.708161,76.4392757 L674.708161,76.4124809 L672.530402,72.9559599 L672.530402,72.9291651 C672.063143,72.1074598 671.904609,71.4554546 672.054799,70.9731493 L672.079831,70.8659704 L672.104863,70.8123809 L675.058605,65.292665 L675.333953,64.8371545 C675.600958,64.2298071 676.31019,63.9529282 677.461649,64.0065176 L681.366596,64.274465 L681.56685,64.274465 M683.973684,67.627907 L683.631579,67.1627907 C683.280702,66.7945736 682.877193,66.5232558 682.421053,66.3488372 L681.763158,66.2616279 L678,66 L680.105263,69.372093 C680.614035,70.2248062 681.333333,70.6802326 682.263158,70.7383721 L686,71 L683.973684,67.627907 M683.278944,82.8611021 C683.923181,82.5432018 684.533512,82.5961852 685.109935,83.0200522 L685.109935,82.9935605 C685.703312,83.3821052 686,83.9384306 686,84.6625367 C686,85.4749484 685.686358,86.1549016 685.059074,86.7023965 C683.024639,88.5214922 680.642655,89.9520433 677.913122,90.9940496 C675.607429,91.8594446 672.988095,92.336295 670.055118,92.4246006 L663.646649,92.980926 C662.476849,93.0868927 661.434201,92.7513314 660.518705,91.9742419 C659.637117,91.1794914 659.145462,90.1728073 659.04374,88.9541898 L659.01831,88.9276981 C658.916588,87.7090805 659.238707,86.6229214 659.984666,85.6692207 C660.764533,84.7331812 661.739366,84.212178 662.909166,84.1062113 L664.943601,83.9472612 L667.308631,81.9603847 C668.410617,81.0420063 669.699092,80.5210032 671.174057,80.3973753 L675.878687,80 L675.904118,80 C676.42968,80 676.887428,80.2031029 677.277361,80.6093088 C677.667295,81.0155146 677.862261,81.492365 677.862261,82.0398598 C677.862261,82.499049 677.726632,82.9140854 677.455374,83.284969 L677.455374,83.3114607 C677.184116,83.6646832 676.845044,83.9031084 676.438157,84.0267362 L676.489018,84.0002445 L674.352861,84.9009619 L674.963192,85.3248288 C675.912595,85.9606293 677.01458,85.9517987 678.269148,85.2983371 L683.278944,82.8611021" id="Hand"></path>
        </g>
    </g>
</svg>