<?xml version="1.0" encoding="UTF-8"?>
<svg width="29px" height="24px" viewBox="0 0 29 24" version="1.1" xmlns="http://www.w3.org/2000/svg" xmlns:xlink="http://www.w3.org/1999/xlink">
    <title>Path</title>
    <g id="Page-1" stroke="none" stroke-width="1" fill="none" fill-rule="evenodd">
        <g id="Exports" transform="translate(-659.000000, -29.000000)" fill="#262B44" fill-rule="nonzero">
            <path d="M685.668957,31.3492754 C687.194,32.8672585 687.956522,34.7118961 687.956522,36.8831884 C687.956522,39.0160507 687.194,40.8510809 685.668957,42.388279 L685.64,42.4171014 L685.611043,42.4459239 L684.481739,43.3682428 L674.40487,51.7844022 C674.134609,51.9957669 673.825739,52.1014493 673.478261,52.1014493 C673.150087,52.1014493 672.860522,51.9957669 672.609565,51.7844022 L662.532696,43.3682428 C662.127304,43.0992331 661.760522,42.7917935 661.432348,42.4459239 L661.374435,42.388279 C659.791478,40.8510809 659,39.0160507 659,36.8831884 C659,34.7118961 659.791478,32.8672585 661.374435,31.3492754 C662.899478,29.8120773 664.752696,29.0434783 666.934087,29.0434783 C669.134783,29.0434783 671.016957,29.8120773 672.580609,31.3492754 L673.507217,32.4157065 L674.462783,31.3492754 C675.987826,29.8120773 677.841043,29.0434783 680.022435,29.0434783 C682.22313,29.0434783 684.105304,29.8120773 685.668957,31.3492754" id="Path"></path>
        </g>
    </g>
</svg>