<?xml version="1.0" encoding="UTF-8"?>
<svg width="29px" height="32px" viewBox="0 0 29 32" version="1.1" xmlns="http://www.w3.org/2000/svg" xmlns:xlink="http://www.w3.org/1999/xlink">
    <title>money</title>
    <g id="Page-1" stroke="none" stroke-width="1" fill="none" fill-rule="evenodd">
        <g id="Exports" transform="translate(-659.000000, -143.000000)" fill="#262B44" fill-rule="nonzero">
            <path d="M676.243243,143 C676.837838,143.342311 677.082046,144.133906 676.975869,145.374785 L676.975869,145.406877 C676.529923,148.295129 675.510618,149.974594 673.917954,150.445272 C672.834942,150.91595 671.550193,151.087106 670.063707,150.958739 L669.936293,150.958739 C668.449807,151.087106 667.15444,150.91595 666.050193,150.445272 C664.478764,149.974594 663.470077,148.295129 663.024131,145.406877 L663.024131,145.374785 C662.917954,144.133906 663.162162,143.342311 663.756757,143 L666.241313,143.064183 L666.209459,143.064183 C667.547297,143.641834 668.810811,143.930659 670,143.930659 C671.189189,143.930659 672.442085,143.641834 673.758687,143.064183 L676.243243,143 M670.99885,175 C662.695077,174.89809 658.701258,172.217846 659.017391,166.959268 C659.776112,160.742732 661.556997,156.370775 664.360047,153.843397 C665.160918,153.028113 666.256848,152.80391 667.647835,153.170788 C668.785916,153.578429 669.871307,153.78225 670.90401,153.78225 C672.063166,153.78225 673.222322,153.578429 674.381478,153.170788 C675.772466,152.80391 676.868395,153.028113 677.669267,153.843397 C680.451241,156.370775 682.221589,160.742732 682.980309,166.959268 C683.317518,172.217846 679.323698,174.89809 670.99885,175 M687.695695,152.733547 C687.976592,153.192795 688.063022,153.69578 687.954984,154.242503 C687.82534,154.767357 687.533639,155.171932 687.079882,155.456228 L686.496481,155.718655 L687.82534,158.342926 C688.041414,158.86778 688.052218,159.3817 687.857751,159.884685 C687.641676,160.38767 687.285153,160.748507 686.788181,160.967197 L685.264855,161 C684.767883,160.781311 684.41136,160.431408 684.195286,159.950292 C682.7908,156.713691 680.651661,153.936338 677.777869,151.618232 C677.432149,151.355805 677.205271,151.027771 677.097234,150.634131 C676.967589,150.24049 676.967589,149.857784 677.097234,149.486012 C677.205271,149.092372 677.432149,148.764338 677.777869,148.501911 C678.080373,148.217615 678.426093,148.064532 678.815027,148.042663 C682.617941,147.71463 685.578163,149.278257 687.695695,152.733547" id="money"></path>
        </g>
    </g>
</svg>