<?xml version="1.0" encoding="UTF-8"?>
<svg width="29px" height="21px" viewBox="0 0 29 21" version="1.1" xmlns="http://www.w3.org/2000/svg" xmlns:xlink="http://www.w3.org/1999/xlink">
    <title>roll</title>
    <g id="Page-1" stroke="none" stroke-width="1" fill="none" fill-rule="evenodd">
        <g id="Exports" transform="translate(-659.000000, -110.000000)" fill="#262B44" fill-rule="nonzero">
            <path d="M665.366272,110.971978 L665.315617,110.998666 L665.644871,110.785167 L665.619544,110.811855 C666.649519,110.206943 667.780804,109.940071 669.013397,110.011237 L669.038724,110.037924 L669.874524,110.144673 L670.051814,110.198048 L675.167921,111.265538 C676.721326,111.603577 677.565568,112.22628 677.700647,113.133647 L677.700647,113.240396 L679.853464,121.566824 C680.005427,121.887071 680.039197,122.234005 679.954773,122.607627 L679.473555,123.595056 L678.561774,124.609172 L677.447374,125.676663 L676.00372,125.569914 C675.632254,125.40979 675.26923,125.329728 674.914648,125.329728 C674.560067,125.329728 674.347935,125.329728 673.369685,125.596601 C672.474789,126.023597 671.841607,126.699675 671.470141,127.624833 L671.470141,127.65152 C671.166214,128.416555 671.098675,129.199382 671.267523,130 L668.912088,129.919938 L668.886761,129.893251 L663.770654,128.82576 L663.72,128.799073 C662.521176,128.478826 661.778243,128.025142 661.491201,127.438022 L661.440546,127.304586 L661.389892,127.224524 L659.262402,119.05822 L659.110439,118.364351 L659.085111,118.337664 C658.798069,117.501463 659.237075,116.549617 660.402129,115.482127 L664.302527,111.772596 L664.479818,111.63916 L665.366272,110.971978 Z M675.246166,130.318237 C674.738046,130.098774 674.373892,129.735817 674.153707,129.229364 L674.102894,129.052106 C673.950458,128.596299 673.967396,128.140492 674.153707,127.684685 C674.373892,127.161351 674.746514,126.789952 675.271572,126.570489 C675.779693,126.351027 676.296283,126.351027 676.821341,126.570489 L677.27865,126.697103 C678.938511,127.068501 680.928651,126.519844 683.24907,125.051132 L682.944197,124.949842 C682.6732,124.865433 682.469951,124.696616 682.334452,124.443389 C682.198954,124.190163 682.173547,123.936937 682.258234,123.683711 C682.325984,123.413603 682.486889,123.211022 682.740949,123.075968 L683.528536,123 L687.288631,124.139518 C687.458004,124.190163 687.610441,124.291454 687.74594,124.443389 L688,124.949842 L687.923782,125.506939 L687.695127,126.08936 L687.669721,126.140005 C687.618909,126.511403 687.48341,126.840597 687.263225,127.127587 L686.018329,130.039688 C685.899767,130.292915 685.713456,130.470173 685.459396,130.571463 C685.205335,130.672754 684.951275,130.672754 684.697214,130.571463 C684.426217,130.453291 684.239906,130.267592 684.138281,130.014366 C684.036657,129.76114 684.036657,129.507913 684.138281,129.254687 C680.716934,131.145443 677.752896,131.499959 675.246166,130.318237 M670.087248,113.079439 L669.389262,113.004965 C668.709172,112.971865 668.082774,113.104263 667.510067,113.402159 L666.785235,113.873826 L663,116.976901 L667.966443,117.920236 C669.165548,118.151932 670.248322,117.878861 671.214765,117.101024 L675,114.022774 L670.087248,113.079439" id="roll"></path>
        </g>
    </g>
</svg>